<svg width="14" height="14" viewBox="0 0 14 14" fill="none" xmlns="http://www.w3.org/2000/svg">
<g id="Group">
<path id="Vector" d="M1.37588 3.74129C1.23743 3.98022 1.3189 4.28614 1.55783 4.42458C1.79676 4.56302 2.10268 4.48156 2.24113 4.24263L1.37588 3.74129ZM1.5 7.00157L1.49986 6.50157L0.499858 6.50185L0.5 7.00185L1.5 7.00157ZM2.24113 4.24263C2.90987 3.08846 3.97527 2.21666 5.23896 1.78956L4.91877 0.842203C3.42532 1.34696 2.16621 2.37727 1.37588 3.74129L2.24113 4.24263ZM5.23896 1.78956C6.50265 1.36245 7.87849 1.40915 9.1103 1.92096L9.49399 0.9975C8.03821 0.392635 6.41222 0.337443 4.91877 0.842203L5.23896 1.78956ZM9.1103 1.92096C10.3421 2.43277 11.346 3.37481 11.9349 4.57166L12.8322 4.13015C12.1361 2.71568 10.9498 1.60237 9.49399 0.9975L9.1103 1.92096ZM11.9349 4.57166C12.5238 5.76852 12.6578 7.13863 12.3117 8.42687L13.2775 8.6863C13.6864 7.16383 13.5282 5.54462 12.8322 4.13015L11.9349 4.57166ZM12.3117 8.42687C11.9656 9.71511 11.1632 10.8337 10.0538 11.5743L10.609 12.406C11.9201 11.5307 12.8685 10.2088 13.2775 8.6863L12.3117 8.42687ZM10.0538 11.5743C8.94439 12.315 7.60363 12.6272 6.28116 12.4528L6.15046 13.4442C7.71338 13.6503 9.29791 13.2813 10.609 12.406L10.0538 11.5743ZM6.28116 12.4528C4.95869 12.2785 3.74465 11.6295 2.86508 10.6266L2.11328 11.286C3.15276 12.4712 4.58754 13.2382 6.15046 13.4442L6.28116 12.4528ZM2.86508 10.6266C1.98552 9.6238 1.50038 8.33548 1.5 7.00157L0.5 7.00185C0.500448 8.57829 1.07379 10.1008 2.11328 11.286L2.86508 10.6266Z" fill="#808080"/>
<path id="Vector_2" d="M4.75 4.00171H1.75V1.00171" stroke="#808080" stroke-linecap="square" stroke-linejoin="round"/>
</g>
</svg>
